<svg width="19" height="16" viewBox="0 0 19 16" fill="none" xmlns="http://www.w3.org/2000/svg">
<path d="M17.5686 0.900405C17.8029 0.900405 18.0009 0.981277 18.1626 1.14302C18.3244 1.30476 18.4052 1.50276 18.4052 1.73701V15.1226C18.4052 15.3569 18.3244 15.5549 18.1626 15.7166C18.0009 15.8784 17.8029 15.9592 17.5686 15.9592H2.5098C2.27556 15.9592 2.07756 15.8784 1.91582 15.7166C1.75407 15.5549 1.6732 15.3569 1.6732 15.1226V14.286H16.732V4.49779L10.0392 10.5213L1.6732 2.99191V1.73701C1.6732 1.50276 1.75407 1.30476 1.91582 1.14302C2.07756 0.981277 2.27556 0.900405 2.5098 0.900405H17.5686ZM6.69281 10.9396V12.6128H0V10.9396H6.69281ZM4.18301 6.75661V8.42982H0V6.75661H4.18301ZM16.3639 2.57361H3.71451L10.0392 8.2625L16.3639 2.57361Z" fill="#F53E32"/>
</svg>
