<svg width="16" height="19" viewBox="0 0 16 19" fill="none" xmlns="http://www.w3.org/2000/svg">
<path d="M7.52941 16.1562L11.6622 12.0066C12.4207 11.2593 12.9339 10.378 13.2016 9.36296C13.4581 8.3702 13.4581 7.37743 13.2016 6.38466C12.9339 5.36959 12.4235 4.48558 11.6706 3.73264C10.9176 2.97969 10.0336 2.46937 9.01856 2.20166C8.02579 1.9451 7.03303 1.9451 6.04026 2.20166C5.02519 2.46937 4.14118 2.97969 3.38824 3.73264C2.63529 4.48558 2.12497 5.36959 1.85725 6.38466C1.6007 7.37743 1.6007 8.3702 1.85725 9.36296C2.12497 10.378 2.63808 11.2593 3.3966 12.0066L7.52941 16.1562ZM7.52941 18.5154L2.20863 13.1946C1.23817 12.2353 0.585621 11.0975 0.25098 9.78126C-0.0836601 8.50963 -0.0836601 7.238 0.25098 5.96636C0.585621 4.65011 1.23538 3.50954 2.20026 2.54466C3.16514 1.57978 4.30571 0.924444 5.62196 0.57865C6.89359 0.255163 8.16523 0.255163 9.43686 0.57865C10.7531 0.924444 11.8937 1.57978 12.8586 2.54466C13.8234 3.50954 14.4732 4.65011 14.8078 5.96636C15.1425 7.238 15.1425 8.50963 14.8078 9.78126C14.4732 11.0975 13.8207 12.2353 12.8502 13.1946L7.52941 18.5154ZM7.52941 9.54702C7.83059 9.54702 8.10946 9.47172 8.36601 9.32113C8.62257 9.17054 8.82614 8.96697 8.97673 8.71041C9.12732 8.45386 9.20261 8.17499 9.20261 7.87381C9.20261 7.57264 9.12732 7.29377 8.97673 7.03721C8.82614 6.78065 8.62257 6.57708 8.36601 6.42649C8.10946 6.2759 7.83059 6.20061 7.52941 6.20061C7.22824 6.20061 6.94937 6.2759 6.69281 6.42649C6.43625 6.57708 6.23268 6.78065 6.08209 7.03721C5.9315 7.29377 5.85621 7.57264 5.85621 7.87381C5.85621 8.17499 5.9315 8.45386 6.08209 8.71041C6.23268 8.96697 6.43625 9.17054 6.69281 9.32113C6.94937 9.47172 7.22824 9.54702 7.52941 9.54702ZM7.52941 11.2202C6.92706 11.2202 6.36932 11.0696 5.85621 10.7685C5.34309 10.4673 4.93595 10.0601 4.63477 9.54702C4.33359 9.0339 4.18301 8.47338 4.18301 7.86545C4.18301 7.25752 4.33359 6.69978 4.63477 6.19224C4.93595 5.68471 5.34309 5.28035 5.85621 4.97917C6.36932 4.678 6.92706 4.52741 7.52941 4.52741C8.13176 4.52741 8.6895 4.678 9.20261 4.97917C9.71573 5.28035 10.1229 5.68471 10.4241 6.19224C10.7252 6.69978 10.8758 7.25752 10.8758 7.86545C10.8758 8.47338 10.7252 9.0339 10.4241 9.54702C10.1229 10.0601 9.71573 10.4673 9.20261 10.7685C8.6895 11.0696 8.13176 11.2202 7.52941 11.2202Z" fill="#F53E32"/>
</svg>
